<?xml version="1.0" encoding="UTF-8" standalone="no"?>
<!DOCTYPE svg PUBLIC "-//W3C//DTD SVG 1.1//EN" "http://www.w3.org/Graphics/SVG/1.1/DTD/svg11.dtd">
<svg width="100%" height="100%" viewBox="0 0 2778 2778" version="1.1" xmlns="http://www.w3.org/2000/svg" xmlns:xlink="http://www.w3.org/1999/xlink" xml:space="preserve" xmlns:serif="http://www.serif.com/" style="fill-rule:evenodd;clip-rule:evenodd;stroke-linecap:round;stroke-linejoin:round;stroke-miterlimit:10;">
    <g transform="matrix(5.55556,0,0,5.55556,0,0)">
        <g transform="matrix(5.65092,0,0,5.65092,249.327,37.495)">
            <path d="M0,76.975L-33.331,57.731L-33.331,19.243L-0.003,0" style="fill:none;fill-rule:nonzero;stroke:rgb(190,30,45);stroke-width:1.31px;"/>
        </g>
        <g transform="matrix(-4.89379,2.82556,2.82556,4.89379,289.132,512.283)">
            <path d="M-35.908,-9.622L2.578,-9.622" style="fill:none;fill-rule:nonzero;stroke:rgb(190,30,45);stroke-width:1.31px;"/>
        </g>
        <g transform="matrix(0.000440458,5.65092,5.65092,-0.000440458,546.417,254.968)">
            <path d="M-19.243,-19.245L19.246,-19.245" style="fill:none;fill-rule:nonzero;stroke:rgb(190,30,45);stroke-width:1.31px;"/>
        </g>
        <g transform="matrix(4.89372,-2.82567,-2.82567,-4.89372,289.122,294.788)">
            <path d="M-2.579,9.623L35.909,9.622" style="fill:none;fill-rule:nonzero;stroke:rgb(190,30,45);stroke-width:1.31px;"/>
        </g>
        <g transform="matrix(0,-5.65092,-5.65092,0,155.161,185.597)">
            <path d="M-2.657,-2.657C-4.124,-2.657 -5.316,-1.467 -5.316,0.001C-5.316,1.467 -4.124,2.657 -2.657,2.657C-1.188,2.657 0.001,1.467 0.001,0.001C0.001,-1.467 -1.188,-2.657 -2.657,-2.657" style="fill:rgb(190,30,45);fill-rule:nonzero;"/>
        </g>
        <g transform="matrix(0,-5.65092,-5.65092,0,249.324,22.48)">
            <path d="M-2.657,-2.658C-4.125,-2.658 -5.315,-1.468 -5.315,0C-5.315,1.468 -4.125,2.657 -2.657,2.657C-1.188,2.657 0,1.468 0,0C0,-1.468 -1.188,-2.658 -2.657,-2.658" style="fill:rgb(190,30,45);fill-rule:nonzero;"/>
        </g>
        <g transform="matrix(4.89362,2.82585,2.82585,-4.89362,175.063,180.716)">
            <path d="M-1.289,-4.811L17.95,-4.81" style="fill:none;fill-rule:nonzero;stroke:rgb(190,30,45);stroke-width:1.31px;"/>
        </g>
    </g>
</svg>
