<?xml version="1.0" encoding="UTF-8" standalone="no"?>
<!DOCTYPE svg PUBLIC "-//W3C//DTD SVG 1.1//EN" "http://www.w3.org/Graphics/SVG/1.1/DTD/svg11.dtd">
<svg width="100%" height="100%" viewBox="0 0 2778 2778" version="1.1" xmlns="http://www.w3.org/2000/svg" xmlns:xlink="http://www.w3.org/1999/xlink" xml:space="preserve" xmlns:serif="http://www.serif.com/" style="fill-rule:evenodd;clip-rule:evenodd;stroke-linecap:round;stroke-linejoin:round;stroke-miterlimit:10;">
    <g transform="matrix(5.55556,0,0,5.55556,0,0)">
        <g transform="matrix(1.35618,0,0,1.35618,-89.0449,-56.395)">
            <g transform="matrix(0,-4.16667,-4.16667,0,151.219,189.862)">
                <path d="M-9.622,9.622L9.622,9.622" style="fill:none;fill-rule:nonzero;stroke:rgb(190,30,45);stroke-width:1.31px;"/>
            </g>
            <g transform="matrix(0,-4.16667,-4.16667,0,428.964,189.862)">
                <path d="M-9.622,9.622L9.622,9.622" style="fill:none;fill-rule:nonzero;stroke:rgb(190,30,45);stroke-width:1.31px;"/>
            </g>
            <g transform="matrix(-3.60835,-2.08349,-2.08349,3.60835,140.506,200.602)">
                <path d="M-35.909,9.622L2.579,9.623" style="fill:none;fill-rule:nonzero;stroke:rgb(190,30,45);stroke-width:1.31px;"/>
            </g>
            <g transform="matrix(-3.60846,2.08329,2.08329,3.60846,264.681,405.001)">
                <path d="M-17.957,-4.812L1.289,-4.812" style="fill:none;fill-rule:nonzero;stroke:rgb(190,30,45);stroke-width:1.31px;"/>
            </g>
            <g transform="matrix(0.000216518,4.16667,4.16667,-0.000216518,399.633,270.038)">
                <path d="M-19.243,-19.244L19.245,-19.244" style="fill:none;fill-rule:nonzero;stroke:rgb(190,30,45);stroke-width:1.31px;"/>
            </g>
            <g transform="matrix(3.60809,2.08395,2.08395,-3.60809,334.131,95.0057)">
                <path d="M-1.29,-4.812L17.951,-4.812" style="fill:none;fill-rule:nonzero;stroke:rgb(190,30,45);stroke-width:1.31px;"/>
            </g>
            <g transform="matrix(3.60827,2.08362,2.08362,-3.60827,195.285,334.687)">
                <path d="M-1.289,-4.811L17.95,-4.81" style="fill:none;fill-rule:nonzero;stroke:rgb(190,30,45);stroke-width:1.31px;"/>
            </g>
            <g transform="matrix(3.60827,-2.08363,-2.08363,-3.60827,209.94,219.211)">
                <path d="M-2.579,9.622L35.906,9.622" style="fill:none;fill-rule:nonzero;stroke:rgb(190,30,45);stroke-width:1.31px;"/>
            </g>
            <g transform="matrix(3.60867,-2.08294,-2.08294,-3.60867,125.8,164.451)">
                <path d="M-1.289,4.811L17.959,4.811" style="fill:none;fill-rule:nonzero;stroke:rgb(190,30,45);stroke-width:1.31px;"/>
            </g>
            <g transform="matrix(0.000216518,4.16667,4.16667,-0.000216518,260.768,270.038)">
                <path d="M-19.243,-19.244L19.245,-19.244" style="fill:none;fill-rule:nonzero;stroke:rgb(190,30,45);stroke-width:1.31px;"/>
            </g>
            <g transform="matrix(3.60827,2.08363,2.08363,-3.60827,209.94,80.331)">
                <path d="M-2.579,-9.622L35.906,-9.622" style="fill:none;fill-rule:nonzero;stroke:rgb(190,30,45);stroke-width:1.31px;"/>
            </g>
            <g transform="matrix(3.60835,-2.08349,-2.08349,-3.60835,279.35,339.487)">
                <path d="M-2.579,9.623L35.909,9.622" style="fill:none;fill-rule:nonzero;stroke:rgb(190,30,45);stroke-width:1.31px;"/>
            </g>
        </g>
    </g>
</svg>
