<?xml version="1.0" encoding="UTF-8" standalone="no"?>
<!DOCTYPE svg PUBLIC "-//W3C//DTD SVG 1.1//EN" "http://www.w3.org/Graphics/SVG/1.1/DTD/svg11.dtd">
<svg width="100%" height="100%" viewBox="0 0 2778 2778" version="1.1" xmlns="http://www.w3.org/2000/svg" xmlns:xlink="http://www.w3.org/1999/xlink" xml:space="preserve" xmlns:serif="http://www.serif.com/" style="fill-rule:evenodd;clip-rule:evenodd;stroke-linecap:round;stroke-linejoin:round;">
    <g transform="matrix(5.55556,0,0,5.55556,0,0)">
        <g transform="matrix(1.35329,0,0,1.35329,-88.323,-88.323)">
            <g transform="matrix(-3.60841,-2.08338,-2.08338,3.60841,228.66,389.021)">
                <path d="M-6.997,1.875L0.502,1.875" style="fill:none;fill-rule:nonzero;stroke:rgb(190,30,45);stroke-width:1.31px;"/>
            </g>
            <g transform="matrix(-3.60863,-2.08301,-2.08301,3.60863,161.263,345.011)">
                <path d="M-10.957,2.936L0.786,2.936" style="fill:none;fill-rule:nonzero;stroke:rgb(190,30,45);stroke-width:1.31px;stroke-dasharray:5.79,5.79;"/>
            </g>
            <g transform="matrix(-3.60817,-2.0838,-2.0838,3.60817,116.846,324.461)">
                <path d="M-6.998,1.876L0.503,1.876" style="fill:none;fill-rule:nonzero;stroke:rgb(190,30,45);stroke-width:1.31px;"/>
            </g>
            <g transform="matrix(3.60841,-2.08338,-2.08338,-3.60841,255.722,416.084)">
                <path d="M-0.502,1.875L6.997,1.875" style="fill:none;fill-rule:nonzero;stroke:rgb(190,30,45);stroke-width:1.31px;"/>
            </g>
            <g transform="matrix(3.60854,-2.08316,-2.08316,-3.60854,314.269,387.383)">
                <path d="M-0.786,2.936L10.956,2.935" style="fill:none;fill-rule:nonzero;stroke:rgb(190,30,45);stroke-width:1.31px;stroke-dasharray:5.79,5.79;"/>
            </g>
            <g transform="matrix(3.60817,-2.0838,-2.0838,-3.60817,367.536,351.53)">
                <path d="M-0.503,1.876L6.998,1.876" style="fill:none;fill-rule:nonzero;stroke:rgb(190,30,45);stroke-width:1.31px;"/>
            </g>
            <g transform="matrix(4.16667,0,0,4.16667,111.122,89.6315)">
                <path d="M0,19.244L33.329,0L66.659,19.244" style="fill:none;fill-rule:nonzero;stroke:rgb(190,30,45);stroke-width:1.31px;stroke-miterlimit:10;"/>
            </g>
            <g transform="matrix(0.000216523,4.16667,4.16667,-0.000216523,330.178,169.808)">
                <path d="M-19.243,-19.243L19.245,-19.243" style="fill:none;fill-rule:nonzero;stroke:rgb(190,30,45);stroke-width:1.31px;stroke-miterlimit:10;"/>
            </g>
            <g transform="matrix(0,4.16667,4.16667,0,265.613,265.625)">
                <path d="M-3.75,-3.75L3.75,-3.75" style="fill:none;fill-rule:nonzero;stroke:rgb(190,30,45);stroke-width:1.31px;"/>
            </g>
            <g transform="matrix(0,4.16667,4.16667,0,274.459,338.34)">
                <path d="M-5.872,-5.872L5.872,-5.872" style="fill:none;fill-rule:nonzero;stroke:rgb(190,30,45);stroke-width:1.31px;stroke-dasharray:5.79,5.79;"/>
            </g>
            <g transform="matrix(0.000555556,4.16667,4.16667,-0.000555556,265.62,394.736)">
                <path d="M-3.75,-3.75L3.751,-3.75" style="fill:none;fill-rule:nonzero;stroke:rgb(190,30,45);stroke-width:1.31px;"/>
            </g>
            <g transform="matrix(0.000216512,4.16667,4.16667,-0.000216512,191.307,249.992)">
                <path d="M-19.244,-19.245L19.246,-19.245" style="fill:none;fill-rule:nonzero;stroke:rgb(190,30,45);stroke-width:1.31px;stroke-miterlimit:10;"/>
            </g>
            <g transform="matrix(0.000216512,4.16667,4.16667,-0.000216512,469.052,249.992)">
                <path d="M-19.244,-19.245L19.246,-19.245" style="fill:none;fill-rule:nonzero;stroke:rgb(190,30,45);stroke-width:1.31px;stroke-miterlimit:10;"/>
            </g>
            <g transform="matrix(0,-4.16667,-4.16667,0,111.12,158.744)">
                <path d="M-2.657,-2.658C-4.126,-2.658 -5.315,-1.469 -5.315,0C-5.315,1.467 -4.126,2.657 -2.657,2.657C-1.19,2.657 0,1.467 0,0C0,-1.469 -1.19,-2.658 -2.657,-2.658" style="fill:rgb(190,30,45);fill-rule:nonzero;"/>
            </g>
            <g transform="matrix(0,-4.16667,-4.16667,0,388.866,158.744)">
                <path d="M-2.657,-2.658C-4.126,-2.658 -5.315,-1.468 -5.315,0C-5.315,1.467 -4.126,2.657 -2.657,2.657C-1.19,2.657 0,1.467 0,0C0,-1.468 -1.19,-2.658 -2.657,-2.658" style="fill:rgb(190,30,45);fill-rule:nonzero;"/>
            </g>
            <g transform="matrix(0,-4.16667,-4.16667,0,250.002,238.927)">
                <path d="M-2.657,-2.657C-4.126,-2.657 -5.316,-1.467 -5.316,0.001C-5.316,1.468 -4.126,2.657 -2.657,2.657C-1.19,2.657 0.001,1.468 0.001,0.001C0.001,-1.467 -1.19,-2.657 -2.657,-2.657" style="fill:rgb(190,30,45);fill-rule:nonzero;"/>
            </g>
            <g transform="matrix(0,-4.16667,-4.16667,0,250.002,78.5623)">
                <path d="M-2.657,-2.657C-4.124,-2.657 -5.316,-1.467 -5.316,0.001C-5.316,1.468 -4.124,2.657 -2.657,2.657C-1.188,2.657 0.001,1.468 0.001,0.001C0.001,-1.467 -1.188,-2.657 -2.657,-2.657" style="fill:rgb(190,30,45);fill-rule:nonzero;"/>
            </g>
            <g transform="matrix(0,-4.16667,-4.16667,0,111.12,319.114)">
                <path d="M-2.657,-2.658C-4.125,-2.658 -5.315,-1.469 -5.315,0C-5.315,1.467 -4.125,2.657 -2.657,2.657C-1.188,2.657 0,1.467 0,0C0,-1.469 -1.188,-2.658 -2.657,-2.658" style="fill:rgb(190,30,45);fill-rule:nonzero;"/>
            </g>
            <g transform="matrix(0,-4.16667,-4.16667,0,388.876,319.114)">
                <path d="M-2.657,-2.658C-4.125,-2.658 -5.315,-1.468 -5.315,0C-5.315,1.467 -4.125,2.657 -2.657,2.657C-1.188,2.657 0,1.467 0,0C0,-1.468 -1.188,-2.658 -2.657,-2.658" style="fill:rgb(190,30,45);fill-rule:nonzero;"/>
            </g>
            <g transform="matrix(0,-4.16667,-4.16667,0,250,399.294)">
                <path d="M-2.657,-2.658C-4.125,-2.658 -5.315,-1.468 -5.315,0C-5.315,1.468 -4.125,2.657 -2.657,2.657C-1.19,2.657 0,1.468 0,0C0,-1.468 -1.19,-2.658 -2.657,-2.658" style="fill:rgb(190,30,45);fill-rule:nonzero;"/>
            </g>
        </g>
    </g>
</svg>
