<?xml version="1.0" encoding="UTF-8" standalone="no"?>
<!DOCTYPE svg PUBLIC "-//W3C//DTD SVG 1.1//EN" "http://www.w3.org/Graphics/SVG/1.1/DTD/svg11.dtd">
<svg width="100%" height="100%" viewBox="0 0 2778 2778" version="1.1" xmlns="http://www.w3.org/2000/svg" xmlns:xlink="http://www.w3.org/1999/xlink" xml:space="preserve" xmlns:serif="http://www.serif.com/" style="fill-rule:evenodd;clip-rule:evenodd;stroke-linecap:round;stroke-linejoin:round;stroke-miterlimit:10;">
    <g transform="matrix(5.55556,0,0,5.55556,0,0)">
        <g transform="matrix(1.36097,0,0,1.36097,-89.9999,-90.2421)">
            <g transform="matrix(0,-4.16667,-4.16667,0,190.633,250.003)">
                <path d="M-19.243,19.243L19.243,19.243" style="fill:none;fill-rule:nonzero;stroke:rgb(190,30,45);stroke-width:1.3px;"/>
            </g>
            <g transform="matrix(0.000216523,4.16667,4.16667,-0.000216523,468.383,249.992)">
                <path d="M-19.243,-19.243L19.245,-19.243" style="fill:none;fill-rule:nonzero;stroke:rgb(190,30,45);stroke-width:1.3px;"/>
            </g>
            <g transform="matrix(4.16667,0,0,4.16667,110.452,410.369)">
                <path d="M0,-57.732L33.329,-38.487L33.331,0" style="fill:none;fill-rule:nonzero;stroke:rgb(190,30,45);stroke-width:1.3px;"/>
            </g>
            <g transform="matrix(3.60835,-2.08349,-2.08349,-3.60835,278.675,279.352)">
                <path d="M-2.579,9.623L35.909,9.622" style="fill:none;fill-rule:nonzero;stroke:rgb(190,30,45);stroke-width:1.3px;"/>
            </g>
            <g transform="matrix(4.16667,0,0,4.16667,110.452,89.6313)">
                <path d="M0,19.245L33.329,0L66.659,19.245" style="fill:none;fill-rule:nonzero;stroke:rgb(190,30,45);stroke-width:1.3px;"/>
            </g>
        </g>
    </g>
</svg>
